<svg width="43" height="8" viewBox="0 0 43 8" fill="none" xmlns="http://www.w3.org/2000/svg">
<path d="M0.550255 3.58859C0.354993 3.78385 0.354993 4.10043 0.550255 4.29569L3.73224 7.47767C3.9275 7.67293 4.24408 7.67293 4.43934 7.47767C4.6346 7.28241 4.6346 6.96583 4.43934 6.77057L1.61092 3.94214L4.43934 1.11371C4.6346 0.918449 4.6346 0.601867 4.43934 0.406605C4.24408 0.211343 3.9275 0.211343 3.73224 0.406605L0.550255 3.58859ZM42.0085 4.29569C42.2038 4.10043 42.2038 3.78385 42.0085 3.58859L38.8265 0.406605C38.6313 0.211343 38.3147 0.211343 38.1194 0.406605C37.9242 0.601867 37.9242 0.918449 38.1194 1.11371L40.9478 3.94214L38.1194 6.77057C37.9242 6.96583 37.9242 7.28241 38.1194 7.47767C38.3147 7.67293 38.6313 7.67293 38.8265 7.47767L42.0085 4.29569ZM0.903809 4.44214H41.655V3.44214H0.903809V4.44214Z" fill="black"/>
</svg>
