<svg width="40" height="40" viewBox="0 0 40 40" fill="none" xmlns="http://www.w3.org/2000/svg">
<path d="M0 20C0 8.95431 8.95431 0 20 0C31.0457 0 40 8.95431 40 20C40 31.0457 31.0457 40 20 40C8.95431 40 0 31.0457 0 20Z" fill="black"/>
<path d="M20.0031 10.163C23.2095 10.163 23.5859 10.1773 24.8533 10.2345C26.0253 10.2869 26.659 10.4823 27.083 10.649C27.6452 10.8682 28.0454 11.1255 28.4647 11.5447C28.884 11.964 29.146 12.3642 29.3604 12.9264C29.5224 13.3504 29.7225 13.9841 29.7749 15.1562C29.8321 16.4235 29.8464 16.7999 29.8464 20.0064C29.8464 23.2128 29.8321 23.5892 29.7749 24.8565C29.7225 26.0286 29.5272 26.6623 29.3604 27.0863C29.1412 27.6485 28.884 28.0487 28.4647 28.468C28.0454 28.8872 27.6452 29.1493 27.083 29.3637C26.659 29.5257 26.0253 29.7258 24.8533 29.7782C23.5859 29.8354 23.2095 29.8497 20.0031 29.8497C16.7966 29.8497 16.4202 29.8354 15.1529 29.7782C13.9808 29.7258 13.3472 29.5304 12.9231 29.3637C12.3609 29.1445 11.9607 28.8872 11.5414 28.468C11.1222 28.0487 10.8601 27.6485 10.6457 27.0863C10.4837 26.6623 10.2836 26.0286 10.2312 24.8565C10.174 23.5892 10.1598 23.2128 10.1598 20.0064C10.1598 16.7999 10.174 16.4235 10.2312 15.1562C10.2836 13.9841 10.479 13.3504 10.6457 12.9264C10.8649 12.3642 11.1222 11.964 11.5414 11.5447C11.9607 11.1255 12.3609 10.8634 12.9231 10.649C13.3472 10.487 13.9808 10.2869 15.1529 10.2345C16.4202 10.1726 16.8014 10.163 20.0031 10.163ZM20.0031 8C16.7442 8 16.3345 8.01429 15.0528 8.07147C13.776 8.12864 12.9041 8.33351 12.1418 8.6289C11.3509 8.93383 10.6838 9.34833 10.0168 10.0154C9.3498 10.6824 8.94006 11.3542 8.63037 12.1403C8.33497 12.9026 8.1301 13.7745 8.07293 15.0561C8.01576 16.333 8.00146 16.7427 8.00146 20.0016C8.00146 23.2605 8.01576 23.6702 8.07293 24.9518C8.1301 26.2287 8.33497 27.1006 8.63037 27.8677C8.93529 28.6585 9.3498 29.3256 10.0168 29.9926C10.6838 30.6596 11.3556 31.0693 12.1418 31.379C12.9041 31.6744 13.776 31.8793 15.0576 31.9365C16.3392 31.9936 16.7442 32.0079 20.0078 32.0079C23.2715 32.0079 23.6764 31.9936 24.9581 31.9365C26.2349 31.8793 27.1068 31.6744 27.8739 31.379C28.6648 31.0741 29.3318 30.6596 29.9988 29.9926C30.6659 29.3256 31.0756 28.6538 31.3853 27.8677C31.6807 27.1053 31.8855 26.2335 31.9427 24.9518C31.9999 23.6702 32.0142 23.2652 32.0142 20.0016C32.0142 16.738 31.9999 16.333 31.9427 15.0513C31.8855 13.7745 31.6807 12.9026 31.3853 12.1355C31.0804 11.3446 30.6659 10.6776 29.9988 10.0106C29.3318 9.34357 28.66 8.93383 27.8739 8.62414C27.1116 8.32875 26.2397 8.12388 24.9581 8.0667C23.6717 8.01429 23.2619 8 20.0031 8Z" fill="white"/>
<path d="M20.0031 10.163C23.2095 10.163 23.5859 10.1773 24.8533 10.2345C26.0253 10.2869 26.659 10.4823 27.083 10.649C27.6452 10.8682 28.0454 11.1255 28.4647 11.5447C28.884 11.964 29.146 12.3642 29.3604 12.9264C29.5224 13.3504 29.7225 13.9841 29.7749 15.1562C29.8321 16.4235 29.8464 16.7999 29.8464 20.0064C29.8464 23.2128 29.8321 23.5892 29.7749 24.8565C29.7225 26.0286 29.5272 26.6623 29.3604 27.0863C29.1412 27.6485 28.884 28.0487 28.4647 28.468C28.0454 28.8872 27.6452 29.1493 27.083 29.3637C26.659 29.5257 26.0253 29.7258 24.8533 29.7782C23.5859 29.8354 23.2095 29.8497 20.0031 29.8497C16.7966 29.8497 16.4202 29.8354 15.1529 29.7782C13.9808 29.7258 13.3472 29.5304 12.9231 29.3637C12.3609 29.1445 11.9607 28.8872 11.5414 28.468C11.1222 28.0487 10.8601 27.6485 10.6457 27.0863C10.4837 26.6623 10.2836 26.0286 10.2312 24.8565C10.174 23.5892 10.1598 23.2128 10.1598 20.0064C10.1598 16.7999 10.174 16.4235 10.2312 15.1562C10.2836 13.9841 10.479 13.3504 10.6457 12.9264C10.8649 12.3642 11.1222 11.964 11.5414 11.5447C11.9607 11.1255 12.3609 10.8634 12.9231 10.649C13.3472 10.487 13.9808 10.2869 15.1529 10.2345C16.4202 10.1726 16.8014 10.163 20.0031 10.163Z" fill="white"/>
<path d="M20.0031 13.8412C16.6013 13.8412 13.8379 16.5998 13.8379 20.0064C13.8379 23.4129 16.5965 26.1715 20.0031 26.1715C23.4096 26.1715 26.1682 23.4129 26.1682 20.0064C26.1682 16.5998 23.4096 13.8412 20.0031 13.8412ZM20.0031 24.0037C17.7924 24.0037 16.0009 22.2123 16.0009 20.0016C16.0009 17.7909 17.7924 15.9995 20.0031 15.9995C22.2137 15.9995 24.0052 17.7909 24.0052 20.0016C24.0052 22.2123 22.2137 24.0037 20.0031 24.0037Z" fill="black"/>
<path d="M26.4115 15.0323C27.2062 15.0323 27.8504 14.3881 27.8504 13.5934C27.8504 12.7987 27.2062 12.1545 26.4115 12.1545C25.6169 12.1545 24.9727 12.7987 24.9727 13.5934C24.9727 14.3881 25.6169 15.0323 26.4115 15.0323Z" fill="black"/>
</svg>
