<svg width="640" height="217" viewBox="0 0 640 217" fill="none" xmlns="http://www.w3.org/2000/svg">
<path d="M109.748 216.808C170.36 216.808 219.495 168.274 219.495 108.404C219.495 48.5341 170.36 0 109.748 0C49.1357 0 0 48.5341 0 108.404C0 168.274 49.1357 216.808 109.748 216.808Z" fill="#E9E9E9"/>
<path d="M109.748 73.8071C95.3483 73.8071 79.0029 80.5343 65.9655 91.8744C50.9823 104.944 42.8096 125.51 42.8096 143.193H78.03C78.03 132.814 85.0352 121.474 89.3161 117.822C96.7105 111.479 105.078 108.404 109.748 108.404V73.8071Z" fill="black"/>
<path d="M141.466 73.8071C141.466 84.1862 134.461 95.5263 130.18 99.1782C122.785 105.521 114.418 108.596 109.748 108.596V143.386C124.148 143.386 140.493 136.658 153.53 125.318C168.514 112.248 176.686 91.6822 176.686 73.9993H141.466V73.8071Z" fill="black"/>
<path d="M369.912 48.2437V168.949H351.426L284.877 86.6847V168.949H262.694V48.2437H281.18L347.729 130.315V48.2437H369.912Z" fill="#E9E9E9"/>
<path d="M473.044 128.778H400.851C402.019 135.505 405.327 140.695 410.775 144.731C416.224 148.767 422.84 150.689 430.623 150.689C440.742 150.689 449.109 147.422 455.531 140.887L467.011 153.957C462.925 158.762 457.671 162.606 451.25 165.105C445.023 167.603 437.823 168.757 429.845 168.757C419.726 168.757 410.775 166.835 403.187 162.798C395.403 158.762 389.565 153.38 385.284 146.269C381.003 139.157 379.058 131.084 379.058 122.243C379.058 113.401 381.003 105.329 385.09 98.4094C389.176 91.2978 394.819 85.7239 402.019 81.8798C409.219 77.8434 417.391 75.9214 426.537 75.9214C435.488 75.9214 443.466 77.8434 450.666 81.8798C457.671 85.7239 463.314 91.2978 467.206 98.4094C471.098 105.521 473.238 113.786 473.238 123.012C473.433 123.973 473.238 126.087 473.044 128.778ZM409.413 98.6016C404.549 102.638 401.824 108.02 400.657 114.747H452.806C451.834 108.212 449.109 102.83 444.439 98.7938C439.769 94.7575 433.931 92.6433 426.926 92.6433C419.921 92.6433 414.083 94.5653 409.413 98.6016Z" fill="#E9E9E9"/>
<path d="M536.674 168.756L513.129 136.081L489.389 168.756H465.649L501.454 121.474L467.012 75.5366H490.946L513.518 106.29L536.09 75.5366H559.441L524.804 121.089L560.803 168.756H536.674Z" fill="#E9E9E9"/>
<path d="M629.298 85.1472C636.498 91.49 640 101.292 640 114.17V167.411H619.569V156.263C616.844 160.3 613.147 163.183 608.282 165.297C603.418 167.411 597.58 168.372 590.575 168.372C583.764 168.372 577.732 167.219 572.478 164.912C567.224 162.606 563.333 159.339 560.414 155.302C557.69 151.074 556.133 146.461 556.133 141.271C556.133 133.006 559.246 126.471 565.278 121.666C571.505 116.669 581.04 114.17 594.272 114.17H618.012V112.825C618.012 106.482 616.066 101.677 612.174 98.2172C608.282 94.7575 602.639 93.0276 595.05 93.0276C589.797 93.0276 584.737 93.7964 579.873 95.3341C574.813 96.8717 570.727 99.1782 567.224 102.061L558.857 86.4926C563.722 82.8407 569.559 80.1499 576.175 78.2278C582.986 76.3058 590.186 75.3447 597.775 75.3447C611.785 75.5369 622.098 78.8044 629.298 85.1472ZM609.645 149.536C613.925 147.037 616.844 143.578 618.596 139.157V128.586H596.413C583.959 128.586 577.732 132.622 577.732 140.695C577.732 144.539 579.289 147.614 582.402 149.92C585.516 152.227 589.797 153.38 595.245 153.38C600.693 153.188 605.364 152.035 609.645 149.536Z" fill="#E9E9E9"/>
</svg>
