<svg width="150" height="51" viewBox="0 0 150 51" fill="none" xmlns="http://www.w3.org/2000/svg">
<path d="M25.7221 50.9548C39.928 50.9548 51.4442 39.5482 51.4442 25.4774C51.4442 11.4066 39.928 0 25.7221 0C11.5162 0 0 11.4066 0 25.4774C0 39.5482 11.5162 50.9548 25.7221 50.9548Z" fill="black"/>
<path d="M25.7219 17.3462C22.347 17.3462 18.516 18.9272 15.4604 21.5924C11.9487 24.6642 10.0332 29.4977 10.0332 33.6535H18.288C18.288 31.2142 19.9298 28.549 20.9332 27.6907C22.6662 26.2 24.6273 25.4773 25.7219 25.4773V17.3462Z" fill="white"/>
<path d="M33.1555 17.3462C33.1555 19.7855 31.5137 22.4507 30.5104 23.309C28.7773 24.7997 26.8162 25.5225 25.7217 25.5225V33.6987C29.0966 33.6987 32.9275 32.1177 35.9832 29.4525C39.4949 26.3807 41.4103 21.5473 41.4103 17.3914H33.1555V17.3462Z" fill="white"/>
<path d="M86.6981 11.3384V39.7068H82.3654L66.768 20.3729V39.7068H61.5688V11.3384H65.9015L81.4989 30.6271V11.3384H86.6981Z" fill="black"/>
<path d="M110.87 30.2658H93.9497C94.2234 31.8468 94.9987 33.0665 96.2757 34.0151C97.5527 34.9637 99.1033 35.4154 100.928 35.4154C103.299 35.4154 105.26 34.6475 106.765 33.1116L109.456 36.1834C108.498 37.3127 107.267 38.2162 105.762 38.8034C104.302 39.3906 102.615 39.6617 100.745 39.6617C98.3736 39.6617 96.2757 39.21 94.497 38.2613C92.6727 37.3127 91.3046 36.0479 90.3012 34.3765C89.2979 32.7051 88.8418 30.8078 88.8418 28.7299C88.8418 26.6519 89.2979 24.7547 90.2556 23.1285C91.2133 21.4571 92.5359 20.1471 94.2234 19.2436C95.9108 18.295 97.8263 17.8433 99.9698 17.8433C102.068 17.8433 103.938 18.295 105.625 19.2436C107.267 20.1471 108.589 21.4571 109.502 23.1285C110.414 24.7999 110.915 26.7423 110.915 28.9106C110.961 29.1364 110.915 29.6333 110.87 30.2658ZM95.9564 23.1736C94.8163 24.1223 94.1778 25.3871 93.9041 26.9682H106.127C105.899 25.4323 105.26 24.1674 104.166 23.2188C103.071 22.2702 101.703 21.7733 100.061 21.7733C98.4192 21.7733 97.051 22.225 95.9564 23.1736Z" fill="black"/>
<path d="M125.783 39.6617L120.265 31.9823L114.701 39.6617H109.137L117.528 28.5492L109.456 17.7529H115.066L120.356 24.9806L125.646 17.7529H131.119L123.001 28.4589L131.438 39.6617H125.783Z" fill="black"/>
<path d="M147.492 20.0113C149.179 21.502 150 23.8058 150 26.8324V39.3453H145.211V36.7252C144.573 37.6739 143.706 38.3515 142.566 38.8484C141.426 39.3453 140.058 39.5711 138.416 39.5711C136.82 39.5711 135.406 39.3001 134.175 38.758C132.943 38.2159 132.031 37.448 131.347 36.4994C130.709 35.5056 130.344 34.4214 130.344 33.2018C130.344 31.2593 131.073 29.7235 132.487 28.5941C133.947 27.4197 136.181 26.8324 139.283 26.8324H144.847V26.5162C144.847 25.0255 144.391 23.8962 143.478 23.0831C142.566 22.27 141.244 21.8634 139.465 21.8634C138.234 21.8634 137.048 22.0441 135.908 22.4055C134.722 22.7669 133.764 23.3089 132.943 23.9865L130.982 20.3275C132.122 19.4693 133.491 18.8368 135.041 18.3851C136.637 17.9334 138.325 17.7075 140.104 17.7075C143.387 17.7527 145.804 18.5206 147.492 20.0113ZM142.886 35.1442C143.889 34.5569 144.573 33.7438 144.983 32.7049V30.2204H139.784C136.865 30.2204 135.406 31.169 135.406 33.0662C135.406 33.9697 135.771 34.6925 136.501 35.2345C137.23 35.7766 138.234 36.0476 139.511 36.0476C140.788 36.0025 141.882 35.7314 142.886 35.1442Z" fill="black"/>
</svg>
