<svg width="295" height="293" viewBox="0 0 295 293" fill="none" xmlns="http://www.w3.org/2000/svg">
<path d="M147.5 292.194C228.962 292.194 295 226.784 295 146.097C295 65.4098 228.962 0 147.5 0C66.038 0 0 65.4098 0 146.097C0 226.784 66.038 292.194 147.5 292.194Z" fill="black"/>
<path d="M147.5 99.4697C128.147 99.4697 106.179 108.536 88.6566 123.819C68.5192 141.434 57.5352 169.151 57.5352 192.982H104.871C104.871 178.994 114.286 163.711 120.04 158.789C129.978 150.241 141.223 146.096 147.5 146.096V99.4697Z" fill="white"/>
<path d="M190.132 99.4697C190.132 113.458 180.718 128.741 174.964 133.663C165.026 142.211 153.781 146.355 147.504 146.355V193.241C166.857 193.241 188.825 184.175 206.347 168.892C226.484 151.277 237.468 123.56 237.468 99.7288H190.132V99.4697Z" fill="white"/>
</svg>
